HIERARCHY
ROOT Hips
{
	OFFSET -0.001795 -0.223333 0.028219
	CHANNELS 6 Xposition Yposition Zposition Zrotation Yrotation Xrotation 
	JOINT LeftUpLeg
	{
		OFFSET 0.069520 -0.091406 -0.006815
		CHANNELS 3 Zrotation Yrotation Xrotation
		JOINT LeftLeg
		{
			OFFSET 0.034277 -0.375199 -0.004496
			CHANNELS 3 Zrotation Yrotation Xrotation
			JOINT LeftFoot
			{
				OFFSET -0.013596 -0.397961 -0.043693
				CHANNELS 3 Zrotation Yrotation Xrotation
				JOINT LeftToe
				{
					OFFSET 0.026358 -0.055791 0.119288
					CHANNELS 3 Zrotation Yrotation Xrotation
					End Site
					{
						OFFSET 0.000000 0.000000 0.000000
					}
				}
			}
		}
	}
	JOINT RightUpLeg
	{
		OFFSET -0.067670 -0.090522 -0.004320
		CHANNELS 3 Zrotation Yrotation Xrotation
		JOINT RightLeg
		{
			OFFSET -0.038290 -0.382569 -0.008850
			CHANNELS 3 Zrotation Yrotation Xrotation
			JOINT RightFoot
			{
				OFFSET 0.015774 -0.398415 -0.042312
				CHANNELS 3 Zrotation Yrotation Xrotation
				JOINT RightToe
				{
					OFFSET -0.025372 -0.048144 0.123348
					CHANNELS 3 Zrotation Yrotation Xrotation
					End Site
					{
						OFFSET 0.000000 0.000000 0.000000
					}
				}
			}
		}
	}
	JOINT Spine
	{
		OFFSET -0.002533 0.108963 -0.026696
		CHANNELS 3 Zrotation Yrotation Xrotation
		JOINT Spine1
		{
			OFFSET 0.005487 0.135180 0.001092
			CHANNELS 3 Zrotation Yrotation Xrotation
			JOINT Spine2
			{
				OFFSET 0.001457 0.052922 0.025425
				CHANNELS 3 Zrotation Yrotation Xrotation
				JOINT Neck
				{
					OFFSET -0.002778 0.213870 -0.042857
					CHANNELS 3 Zrotation Yrotation Xrotation
					JOINT Head
					{
						OFFSET 0.005152 0.064970 0.051349
						CHANNELS 3 Zrotation Yrotation Xrotation
						End Site
						{
							OFFSET 0.000000 0.000000 0.000000
						}
					}
				}
				JOINT LeftShoulder
				{
					OFFSET 0.078845 0.121749 -0.034090
					CHANNELS 3 Zrotation Yrotation Xrotation
					JOINT LeftArm
					{
						OFFSET 0.090977 0.030469 -0.008868
						CHANNELS 3 Zrotation Yrotation Xrotation
						JOINT LeftForeArm
						{
							OFFSET 0.259612 -0.012772 -0.027456
							CHANNELS 3 Zrotation Yrotation Xrotation
							JOINT LeftHand
							{
								OFFSET 0.249234 0.008986 -0.001171
								CHANNELS 3 Zrotation Yrotation Xrotation
								End Site
								{
									OFFSET 0.000000 0.000000 0.000000
								}
							}
						}
					}
				}
				JOINT RightShoulder
				{
					OFFSET -0.081759 0.118833 -0.038615
					CHANNELS 3 Zrotation Yrotation Xrotation
					JOINT RightArm
					{
						OFFSET -0.096012 0.032551 -0.009143
						CHANNELS 3 Zrotation Yrotation Xrotation
						JOINT RightForeArm
						{
							OFFSET -0.253742 -0.013329 -0.021401
							CHANNELS 3 Zrotation Yrotation Xrotation
							JOINT RightHand
							{
								OFFSET -0.255298 0.007772 -0.005559
								CHANNELS 3 Zrotation Yrotation Xrotation
								End Site
								{
									OFFSET 0.000000 0.000000 0.000000
								}
							}
						}
					}
				}
			}
		}
	}
}
MOTION
Frames: 10
Frame Time: 0.05000000
-0.096614 0.954083 -3.251740 -4.775105 -4.333287 3.391936 7.481989 0.149514 7.263687 -0.169089 0.059619 -1.271295 8.519582 17.901425 9.762663 0.000000 0.000000 0.000000 -3.726304 0.791829 -9.223442 1.191281 -0.006727 3.348701 -2.893290 -12.029251 16.751383 0.000000 0.000000 0.000000 -3.343261 0.073200 -0.010703 7.071125 -1.471407 -20.486882 0.731291 0.179110 27.304499 4.916729 -1.467216 -27.569823 0.000000 0.000000 0.000000 -15.699376 3.739667 -2.272602 -55.059039 -4.604830 -6.761916 -23.689170 -40.744212 11.923816 0.000000 0.000000 0.000000 -2.065424 10.380140 3.471816 30.497020 42.115004 4.868344 -133.562502 40.669770 -73.186895 0.000000 0.000000 0.000000 
-0.096910 0.954096 -3.251338 -4.714863 -3.839946 2.969026 7.752973 0.132684 7.570918 -0.486737 0.089973 -1.172546 8.108832 17.238162 9.486222 0.000000 0.000000 0.000000 -4.005232 0.747424 -8.878795 1.324574 -0.025592 3.366362 -2.850835 -11.954598 17.136600 0.000000 0.000000 0.000000 -3.599794 0.068440 0.368345 7.189125 -1.484735 -20.638501 0.717801 -0.001538 27.254198 4.610925 -1.271496 -27.640415 0.000000 0.000000 0.000000 -15.901174 3.859145 -2.374861 -55.043467 -4.629735 -6.762944 -23.998121 -40.508600 11.957066 0.000000 0.000000 0.000000 -2.006710 10.812584 3.608991 30.085496 41.747601 4.691567 -133.302460 39.879374 -71.598730 0.000000 0.000000 0.000000 
-0.097316 0.954154 -3.250725 -4.658100 -3.412345 2.678120 7.976519 0.105467 7.472401 -0.612136 0.088322 -0.644237 7.746532 16.634354 8.985506 0.000000 0.000000 0.000000 -4.161140 0.726300 -8.764990 1.336827 -0.016757 3.771466 -3.165144 -12.417553 17.208526 0.000000 0.000000 0.000000 -3.964510 0.069209 0.771143 7.368325 -1.508141 -20.851109 0.725997 -0.097530 27.199236 4.355934 -1.095363 -27.717466 0.000000 0.000000 0.000000 -16.149533 3.948416 -2.477277 -54.996561 -4.375132 -6.877847 -24.816038 -40.933108 12.406362 0.000000 0.000000 0.000000 -1.939925 11.009499 3.673309 29.779910 41.360488 4.545131 -132.944772 39.119539 -69.893564 0.000000 0.000000 0.000000 
-0.097674 0.954445 -3.249955 -4.479527 -3.061150 2.428811 7.998355 0.096347 7.424555 -0.744588 0.092094 -0.251453 7.408200 16.038439 8.247999 0.000000 0.000000 0.000000 -4.576602 0.689990 -8.559080 1.538481 -0.044246 3.813702 -3.444124 -12.888078 17.610364 0.000000 0.000000 0.000000 -4.292139 0.072615 1.001887 7.287499 -1.473945 -20.953226 0.717417 -0.537453 27.141201 3.980691 -0.935655 -27.643822 0.000000 0.000000 0.000000 -16.686705 3.860354 -2.426077 -54.957547 -4.094791 -7.019531 -25.145572 -41.538454 12.786433 0.000000 0.000000 0.000000 -2.091925 11.466354 3.811132 29.532214 40.533258 4.270609 -133.101594 38.691223 -69.621667 0.000000 0.000000 0.000000 
-0.097853 0.954560 -3.249077 -4.296130 -2.818435 2.333439 7.969169 0.088568 7.253284 -0.832406 0.096384 -0.046303 7.374799 15.980057 8.122658 0.000000 0.000000 0.000000 -4.814816 0.670918 -8.467178 1.618632 -0.064366 3.535224 -3.695743 -13.312165 17.938391 0.000000 0.000000 0.000000 -4.486580 0.076271 0.978183 7.178804 -1.437197 -21.004627 0.672046 -1.000974 27.137482 3.610765 -0.768901 -27.786002 0.000000 0.000000 0.000000 -16.745618 3.742426 -2.302227 -54.839555 -3.992930 -7.052809 -26.193744 -41.984786 13.426029 0.000000 0.000000 0.000000 -2.226972 11.686752 3.876182 28.698372 40.036233 3.911973 -132.429740 38.973986 -69.621795 0.000000 0.000000 0.000000 
-0.097905 0.955028 -3.248239 -4.154529 -3.089608 2.398679 7.695094 0.108849 7.003649 -0.830474 0.090893 0.181551 7.409776 16.013532 7.800368 0.000000 0.000000 0.000000 -5.091001 0.675635 -8.655880 1.787287 -0.085469 3.502274 -3.716585 -13.443869 18.285275 0.000000 0.000000 0.000000 -4.506880 0.079305 0.724577 7.203639 -1.439296 -21.087786 0.542068 -1.113234 27.260032 3.316013 -0.688348 -27.416476 0.000000 0.000000 0.000000 -17.001595 3.552785 -2.153116 -54.246636 -3.856704 -7.077067 -27.377715 -42.506709 14.151700 0.000000 0.000000 0.000000 -2.808593 12.015459 3.952843 27.608217 39.175369 3.419779 -131.899660 39.459288 -70.131277 0.000000 0.000000 0.000000 
-0.097904 0.955287 -3.247561 -3.966103 -3.502923 2.386693 7.286073 0.150354 7.009270 -0.949158 0.108519 0.060107 7.818944 16.717245 8.051474 0.000000 0.000000 0.000000 -5.341722 0.675311 -8.733374 1.891780 -0.098346 3.422588 -3.627141 -13.400315 18.499170 0.000000 0.000000 0.000000 -4.482498 0.079596 0.740847 7.208708 -1.438451 -21.170508 0.422471 -1.255671 27.321673 2.921521 -0.552332 -27.211620 0.000000 0.000000 0.000000 -17.150983 3.410404 -1.995207 -53.979933 -3.966978 -7.018609 -28.338215 -42.683018 14.696569 0.000000 0.000000 0.000000 -3.487547 12.277330 4.005716 26.347631 38.726945 2.980166 -130.928259 39.376614 -69.327453 0.000000 0.000000 0.000000 
-0.097969 0.955698 -3.247056 -3.752579 -4.214754 2.348342 6.916428 0.190594 6.854451 -1.271723 0.140485 0.424911 8.024170 17.060851 8.308614 0.000000 0.000000 0.000000 -5.370931 0.700903 -9.046675 2.007562 -0.102270 3.653739 -3.424674 -13.168849 18.357917 0.000000 0.000000 0.000000 -4.527102 0.082051 0.741333 7.285299 -1.493110 -20.919218 0.225758 -1.318944 27.006666 3.018527 -0.733857 -26.613995 0.000000 0.000000 0.000000 -17.222229 3.348549 -1.861546 -53.920986 -3.933330 -7.006768 -29.046144 -43.095816 15.245758 0.000000 0.000000 0.000000 -3.845278 12.412858 4.041797 26.036685 38.983045 2.915309 -129.978812 39.248711 -68.451533 0.000000 0.000000 0.000000 
-0.098344 0.955631 -3.246645 -3.630267 -4.835791 2.317085 6.441753 0.245429 7.018442 -1.313935 0.150874 0.255671 8.149950 17.269563 8.550798 0.000000 0.000000 0.000000 -5.257937 0.720884 -9.184484 2.212592 -0.121677 3.743157 -3.435737 -13.275035 18.296880 0.000000 0.000000 0.000000 -4.562105 0.083846 0.790170 7.466577 -1.554785 -20.868046 -0.001841 -1.378741 27.061595 3.277853 -1.011879 -25.970406 0.000000 0.000000 0.000000 -17.470282 3.130139 -1.652764 -54.106686 -4.166603 -6.946152 -29.108970 -44.109169 15.766987 0.000000 0.000000 0.000000 -3.828620 12.412816 4.050651 26.155715 39.449174 2.969811 -129.429457 38.911724 -67.596120 0.000000 0.000000 0.000000 
-0.098860 0.955270 -3.246235 -3.609046 -6.112717 2.453764 6.084268 0.296609 6.977553 -1.554116 0.181963 0.409138 8.762409 18.282491 9.003999 0.000000 0.000000 0.000000 -4.952908 0.788573 -9.783206 2.278791 -0.111218 4.082409 -2.920764 -12.629636 18.143854 0.000000 0.000000 0.000000 -4.373962 0.084016 0.755575 7.665170 -1.664462 -20.457299 0.001312 -1.195760 26.939510 3.701430 -1.420812 -25.177597 0.000000 0.000000 0.000000 -17.581885 3.098048 -1.508961 -54.187441 -4.322224 -6.884079 -29.349364 -45.049112 16.371794 0.000000 0.000000 0.000000 -3.670178 12.011539 3.949688 27.315666 40.826530 3.440181 -129.728057 38.677811 -67.808209 0.000000 0.000000 0.000000 
